<svg width="18" height="18" viewBox="0 0 18 18" fill="none" xmlns="http://www.w3.org/2000/svg">
<path d="M9 1.5C7.03726 1.50523 5.1545 2.27836 3.7545 3.654V2.25C3.7545 2.05109 3.67548 1.86032 3.53483 1.71967C3.39418 1.57902 3.20341 1.5 3.0045 1.5C2.80559 1.5 2.61482 1.57902 2.47417 1.71967C2.33352 1.86032 2.2545 2.05109 2.2545 2.25V5.625C2.2545 5.82391 2.33352 6.01468 2.47417 6.15533C2.61482 6.29598 2.80559 6.375 3.0045 6.375H6.3795C6.57841 6.375 6.76918 6.29598 6.90983 6.15533C7.05048 6.01468 7.1295 5.82391 7.1295 5.625C7.1295 5.42609 7.05048 5.23532 6.90983 5.09467C6.76918 4.95402 6.57841 4.875 6.3795 4.875H4.6635C5.62573 3.87075 6.90766 3.23298 8.28905 3.07126C9.67044 2.90953 11.065 3.23396 12.2332 3.98879C13.4014 4.74363 14.2702 5.88174 14.6903 7.20758C15.1105 8.53342 15.0558 9.9642 14.5356 11.2541C14.0155 12.544 13.0623 13.6124 11.8399 14.2759C10.6175 14.9393 9.20221 15.1563 7.83721 14.8896C6.4722 14.6228 5.2427 13.889 4.35996 12.8143C3.47722 11.7395 2.99636 10.3908 3 9C3 8.80109 2.92098 8.61032 2.78033 8.46967C2.63968 8.32902 2.44891 8.25 2.25 8.25C2.05109 8.25 1.86032 8.32902 1.71967 8.46967C1.57902 8.61032 1.5 8.80109 1.5 9C1.5 10.4834 1.93987 11.9334 2.76398 13.1668C3.58809 14.4001 4.75943 15.3614 6.12987 15.9291C7.50032 16.4968 9.00832 16.6453 10.4632 16.3559C11.918 16.0665 13.2544 15.3522 14.3033 14.3033C15.3522 13.2544 16.0665 11.918 16.3559 10.4632C16.6453 9.00832 16.4968 7.50032 15.9291 6.12987C15.3614 4.75943 14.4001 3.58809 13.1668 2.76398C11.9334 1.93987 10.4834 1.5 9 1.5Z" fill="#A6A6A6"/>
<path d="M10.5 9.75H9C8.80109 9.75 8.61032 9.67098 8.46967 9.53033C8.32902 9.38968 8.25 9.19891 8.25 9V6.75C8.25 6.55109 8.32902 6.36032 8.46967 6.21967C8.61032 6.07902 8.80109 6 9 6C9.19891 6 9.38968 6.07902 9.53033 6.21967C9.67098 6.36032 9.75 6.55109 9.75 6.75V8.25H10.5C10.6989 8.25 10.8897 8.32902 11.0303 8.46967C11.171 8.61032 11.25 8.80109 11.25 9C11.25 9.19891 11.171 9.38968 11.0303 9.53033C10.8897 9.67098 10.6989 9.75 10.5 9.75Z" fill="#A6A6A6"/>
<path d="M9 3C8.18796 3.00314 7.385 3.17092 6.63964 3.49319C5.89429 3.81547 5.22203 4.28554 4.6635 4.875H6.3795C6.57841 4.875 6.76918 4.95402 6.90983 5.09467C7.05048 5.23532 7.1295 5.42609 7.1295 5.625C7.1295 5.82391 7.05048 6.01468 6.90983 6.15533C6.76918 6.29598 6.57841 6.375 6.3795 6.375H3.0045C2.82158 6.37374 2.64556 6.30499 2.5102 6.18195C2.37483 6.05891 2.28966 5.89022 2.271 5.70825C1.76485 6.73181 1.50104 7.85813 1.5 9C1.5 8.80109 1.57902 8.61032 1.71967 8.46967C1.86032 8.32902 2.05109 8.25 2.25 8.25C2.44891 8.25 2.63968 8.32902 2.78033 8.46967C2.92098 8.61032 3 8.80109 3 9C3 10.1867 3.35189 11.3467 4.01118 12.3334C4.67047 13.3201 5.60754 14.0892 6.7039 14.5433C7.80026 14.9974 9.00666 15.1162 10.1705 14.8847C11.3344 14.6532 12.4035 14.0818 13.2426 13.2426C14.0818 12.4035 14.6532 11.3344 14.8847 10.1705C15.1162 9.00666 14.9974 7.80026 14.5433 6.7039C14.0892 5.60754 13.3201 4.67047 12.3334 4.01118C11.3467 3.35189 10.1867 3 9 3ZM10.5 9.75H9C8.80109 9.75 8.61032 9.67098 8.46967 9.53033C8.32902 9.38968 8.25 9.19891 8.25 9V6.75C8.25 6.55109 8.32902 6.36032 8.46967 6.21967C8.61032 6.07902 8.80109 6 9 6C9.19891 6 9.38968 6.07902 9.53033 6.21967C9.67098 6.36032 9.75 6.55109 9.75 6.75V8.25H10.5C10.6989 8.25 10.8897 8.32902 11.0303 8.46967C11.171 8.61032 11.25 8.80109 11.25 9C11.25 9.19891 11.171 9.38968 11.0303 9.53033C10.8897 9.67098 10.6989 9.75 10.5 9.75Z" fill="#A6A6A6" fill-opacity="0.12"/>
</svg>
