<svg width="10" height="11" viewBox="0 0 10 11" fill="none" xmlns="http://www.w3.org/2000/svg">
<rect y="0.5" width="10" height="10" rx="1" fill="#00BF63"/>
<path d="M5.07069 6.12492L4.99998 6.05421L4.92927 6.12492L2.94014 8.11405C2.86269 8.1915 2.76932 8.22607 2.66302 8.22607C2.55672 8.22607 2.46336 8.1915 2.38591 8.11405C2.22931 7.95745 2.22931 7.71642 2.38591 7.55982L4.37504 5.57069L4.44575 5.49998L4.37504 5.42927L2.38591 3.44014C2.22931 3.28354 2.22931 3.04251 2.38591 2.88591C2.54251 2.72931 2.78354 2.72931 2.94014 2.88591L4.92927 4.87504L4.99998 4.94575L5.07069 4.87504L7.05982 2.88591C7.21642 2.72931 7.45745 2.72931 7.61405 2.88591C7.77065 3.04251 7.77065 3.28354 7.61405 3.44014L5.62492 5.42927L5.55421 5.49998L5.62492 5.57069L7.61405 7.55982C7.77065 7.71642 7.77065 7.95745 7.61405 8.11405C7.5366 8.1915 7.44323 8.22607 7.33694 8.22607C7.23064 8.22607 7.13727 8.1915 7.05982 8.11405L5.07069 6.12492Z" fill="#F8F8F8" stroke="#00BF63" stroke-width="0.2"/>
</svg>
