<svg width="81" height="24" viewBox="0 0 81 24" fill="none" xmlns="http://www.w3.org/2000/svg">
<path d="M34.6914 5.88C35.8754 5.88 36.91 6.10933 37.7954 6.568C38.6914 7.016 39.3794 7.66667 39.8594 8.52C40.35 9.36267 40.5954 10.3493 40.5954 11.48C40.5954 12.6107 40.35 13.592 39.8594 14.424C39.3794 15.256 38.6914 15.896 37.7954 16.344C36.91 16.7813 35.8754 17 34.6914 17H31.0594V5.88H34.6914ZM34.6914 15.512C35.9927 15.512 36.99 15.16 37.6834 14.456C38.3767 13.752 38.7234 12.76 38.7234 11.48C38.7234 10.1893 38.3767 9.18133 37.6834 8.456C36.99 7.73067 35.9927 7.368 34.6914 7.368H32.8834V15.512H34.6914ZM50.4831 12.376C50.4831 12.7067 50.4618 13.0053 50.4191 13.272H43.6831C43.7365 13.976 43.9978 14.5413 44.4671 14.968C44.9365 15.3947 45.5125 15.608 46.1951 15.608C47.1765 15.608 47.8698 15.1973 48.2751 14.376H50.2431C49.9765 15.1867 49.4911 15.8533 48.7871 16.376C48.0938 16.888 47.2298 17.144 46.1951 17.144C45.3525 17.144 44.5951 16.9573 43.9231 16.584C43.2618 16.2 42.7391 15.6667 42.3551 14.984C41.9818 14.2907 41.7951 13.4907 41.7951 12.584C41.7951 11.6773 41.9765 10.8827 42.3391 10.2C42.7125 9.50667 43.2298 8.97333 43.8911 8.6C44.5631 8.22667 45.3311 8.04 46.1951 8.04C47.0271 8.04 47.7685 8.22133 48.4191 8.584C49.0698 8.94667 49.5765 9.45867 49.9391 10.12C50.3018 10.7707 50.4831 11.5227 50.4831 12.376ZM48.5791 11.8C48.5685 11.128 48.3285 10.5893 47.8591 10.184C47.3898 9.77867 46.8085 9.576 46.1151 9.576C45.4858 9.576 44.9471 9.77867 44.4991 10.184C44.0511 10.5787 43.7845 11.1173 43.6991 11.8H48.5791ZM54.1021 5.16V17H52.2781V5.16H54.1021ZM64.5769 12.376C64.5769 12.7067 64.5555 13.0053 64.5129 13.272H57.7769C57.8302 13.976 58.0915 14.5413 58.5609 14.968C59.0302 15.3947 59.6062 15.608 60.2889 15.608C61.2702 15.608 61.9635 15.1973 62.3689 14.376H64.3369C64.0702 15.1867 63.5849 15.8533 62.8809 16.376C62.1875 16.888 61.3235 17.144 60.2889 17.144C59.4462 17.144 58.6889 16.9573 58.0169 16.584C57.3555 16.2 56.8329 15.6667 56.4489 14.984C56.0755 14.2907 55.8889 13.4907 55.8889 12.584C55.8889 11.6773 56.0702 10.8827 56.4329 10.2C56.8062 9.50667 57.3235 8.97333 57.9849 8.6C58.6569 8.22667 59.4249 8.04 60.2889 8.04C61.1209 8.04 61.8622 8.22133 62.5129 8.584C63.1635 8.94667 63.6702 9.45867 64.0329 10.12C64.3955 10.7707 64.5769 11.5227 64.5769 12.376ZM62.6729 11.8C62.6622 11.128 62.4222 10.5893 61.9529 10.184C61.4835 9.77867 60.9022 9.576 60.2089 9.576C59.5795 9.576 59.0409 9.77867 58.5929 10.184C58.1449 10.5787 57.8782 11.1173 57.7929 11.8H62.6729ZM68.4999 9.672V14.552C68.4999 14.8827 68.5745 15.1227 68.7239 15.272C68.8839 15.4107 69.1505 15.48 69.5239 15.48H70.6439V17H69.2039C68.3825 17 67.7532 16.808 67.3159 16.424C66.8785 16.04 66.6599 15.416 66.6599 14.552V9.672H65.6199V8.184H66.6599V5.992H68.4999V8.184H70.6439V9.672H68.4999ZM80.405 12.376C80.405 12.7067 80.3837 13.0053 80.341 13.272H73.605C73.6583 13.976 73.9197 14.5413 74.389 14.968C74.8583 15.3947 75.4343 15.608 76.117 15.608C77.0983 15.608 77.7917 15.1973 78.197 14.376H80.165C79.8983 15.1867 79.413 15.8533 78.709 16.376C78.0157 16.888 77.1517 17.144 76.117 17.144C75.2743 17.144 74.517 16.9573 73.845 16.584C73.1837 16.2 72.661 15.6667 72.277 14.984C71.9037 14.2907 71.717 13.4907 71.717 12.584C71.717 11.6773 71.8983 10.8827 72.261 10.2C72.6343 9.50667 73.1517 8.97333 73.813 8.6C74.485 8.22667 75.253 8.04 76.117 8.04C76.949 8.04 77.6903 8.22133 78.341 8.584C78.9917 8.94667 79.4983 9.45867 79.861 10.12C80.2237 10.7707 80.405 11.5227 80.405 12.376ZM78.501 11.8C78.4903 11.128 78.2503 10.5893 77.781 10.184C77.3117 9.77867 76.7303 9.576 76.037 9.576C75.4077 9.576 74.869 9.77867 74.421 10.184C73.973 10.5787 73.7063 11.1173 73.621 11.8H78.501Z" fill="#FD342A"/>
<path d="M29.8594 18.6H80.997V19.4H29.8594V18.6Z" fill="#FD342A"/>
<path fill-rule="evenodd" clip-rule="evenodd" d="M11 2C9.93913 2 8.92172 2.42143 8.17157 3.17157C7.42143 3.92172 7 4.93913 7 6H3C2.73478 6 2.48043 6.10536 2.29289 6.29289C2.10536 6.48043 2 6.73478 2 7C2 7.26522 2.10536 7.51957 2.29289 7.70711C2.48043 7.89464 2.73478 8 3 8H4V18C4 19.0609 4.42143 20.0783 5.17157 20.8284C5.92172 21.5786 6.93913 22 8 22H16C17.0609 22 18.0783 21.5786 18.8284 20.8284C19.5786 20.0783 20 19.0609 20 18V8H21C21.2652 8 21.5196 7.89464 21.7071 7.70711C21.8946 7.51957 22 7.26522 22 7C22 6.73478 21.8946 6.48043 21.7071 6.29289C21.5196 6.10536 21.2652 6 21 6H17C17 4.93913 16.5786 3.92172 15.8284 3.17157C15.0783 2.42143 14.0609 2 13 2H11ZM15 6C15 5.46957 14.7893 4.96086 14.4142 4.58579C14.0391 4.21071 13.5304 4 13 4H11C10.4696 4 9.96086 4.21071 9.58579 4.58579C9.21071 4.96086 9 5.46957 9 6H15ZM10 10C10.2652 10 10.5196 10.1054 10.7071 10.2929C10.8946 10.4804 11 10.7348 11 11V17C11 17.2652 10.8946 17.5196 10.7071 17.7071C10.5196 17.8946 10.2652 18 10 18C9.73478 18 9.48043 17.8946 9.29289 17.7071C9.10536 17.5196 9 17.2652 9 17V11C9 10.7348 9.10536 10.4804 9.29289 10.2929C9.48043 10.1054 9.73478 10 10 10ZM15 11C15 10.7348 14.8946 10.4804 14.7071 10.2929C14.5196 10.1054 14.2652 10 14 10C13.7348 10 13.4804 10.1054 13.2929 10.2929C13.1054 10.4804 13 10.7348 13 11V17C13 17.2652 13.1054 17.5196 13.2929 17.7071C13.4804 17.8946 13.7348 18 14 18C14.2652 18 14.5196 17.8946 14.7071 17.7071C14.8946 17.5196 15 17.2652 15 17V11Z" fill="#FD342A"/>
</svg>
