<svg width="8" height="8" viewBox="0 0 8 8" fill="none" xmlns="http://www.w3.org/2000/svg">
<path fill-rule="evenodd" clip-rule="evenodd" d="M3.6 0C3.17565 0 2.76869 0.168571 2.46863 0.468629C2.16857 0.768687 2 1.17565 2 1.6H0.4C0.293913 1.6 0.192172 1.64214 0.117157 1.71716C0.0421427 1.79217 0 1.89391 0 2C0 2.10609 0.0421427 2.20783 0.117157 2.28284C0.192172 2.35786 0.293913 2.4 0.4 2.4H0.8V6.4C0.8 6.82435 0.968571 7.23131 1.26863 7.53137C1.56869 7.83143 1.97565 8 2.4 8H5.6C6.02435 8 6.43131 7.83143 6.73137 7.53137C7.03143 7.23131 7.2 6.82435 7.2 6.4V2.4H7.6C7.70609 2.4 7.80783 2.35786 7.88284 2.28284C7.95786 2.20783 8 2.10609 8 2C8 1.89391 7.95786 1.79217 7.88284 1.71716C7.80783 1.64214 7.70609 1.6 7.6 1.6H6C6 1.17565 5.83143 0.768687 5.53137 0.468629C5.23131 0.168571 4.82435 0 4.4 0H3.6ZM5.2 1.6C5.2 1.38783 5.11571 1.18434 4.96569 1.03431C4.81566 0.884285 4.61217 0.8 4.4 0.8H3.6C3.38783 0.8 3.18434 0.884285 3.03431 1.03431C2.88429 1.18434 2.8 1.38783 2.8 1.6H5.2ZM3.2 3.2C3.30609 3.2 3.40783 3.24214 3.48284 3.31716C3.55786 3.39217 3.6 3.49391 3.6 3.6V6C3.6 6.10609 3.55786 6.20783 3.48284 6.28284C3.40783 6.35786 3.30609 6.4 3.2 6.4C3.09391 6.4 2.99217 6.35786 2.91716 6.28284C2.84214 6.20783 2.8 6.10609 2.8 6V3.6C2.8 3.49391 2.84214 3.39217 2.91716 3.31716C2.99217 3.24214 3.09391 3.2 3.2 3.2ZM5.2 3.6C5.2 3.49391 5.15786 3.39217 5.08284 3.31716C5.00783 3.24214 4.90609 3.2 4.8 3.2C4.69391 3.2 4.59217 3.24214 4.51716 3.31716C4.44214 3.39217 4.4 3.49391 4.4 3.6V6C4.4 6.10609 4.44214 6.20783 4.51716 6.28284C4.59217 6.35786 4.69391 6.4 4.8 6.4C4.90609 6.4 5.00783 6.35786 5.08284 6.28284C5.15786 6.20783 5.2 6.10609 5.2 6V3.6Z" fill="#FD342A"/>
</svg>
