<svg width="5" height="14" viewBox="0 0 5 14" fill="none" xmlns="http://www.w3.org/2000/svg">
<path d="M2.60026 3.66671C3.51693 3.66671 4.26693 2.91671 4.26693 2.00004C4.26693 1.08337 3.51693 0.333374 2.60026 0.333374C1.68359 0.333374 0.933594 1.08337 0.933594 2.00004C0.933594 2.91671 1.68359 3.66671 2.60026 3.66671ZM2.60026 5.33337C1.68359 5.33337 0.933594 6.08337 0.933594 7.00004C0.933594 7.91671 1.68359 8.66671 2.60026 8.66671C3.51693 8.66671 4.26693 7.91671 4.26693 7.00004C4.26693 6.08337 3.51693 5.33337 2.60026 5.33337ZM2.60026 10.3334C1.68359 10.3334 0.933594 11.0834 0.933594 12C0.933594 12.9167 1.68359 13.6667 2.60026 13.6667C3.51693 13.6667 4.26693 12.9167 4.26693 12C4.26693 11.0834 3.51693 10.3334 2.60026 10.3334Z" fill="#00BF63"/>
</svg>
