<svg width="60" height="60" viewBox="0 0 60 60" fill="none" xmlns="http://www.w3.org/2000/svg">
<g filter="url(#filter0_d_132_82)">
<circle cx="28" cy="28" r="21" fill="white"/>
</g>
<path d="M31.8144 19.7096L31.8135 19.7083C31.6397 19.4386 31.3668 19.202 31.0682 19.0329C30.7698 18.864 30.4236 18.75 30.0931 18.75H26.3727C26.0422 18.75 25.696 18.864 25.3977 19.0329C25.0991 19.202 24.8262 19.4386 24.6523 19.7083L24.6515 19.7096L23.4727 21.5625H20.5894C20.1208 21.5625 19.75 21.9547 19.75 22.375V22.9375C19.75 23.4028 20.1309 23.75 20.5894 23.75H20.9288V35.3125C20.9288 36.4107 21.8254 37.25 22.9469 37.25H33.5558C34.637 37.25 35.5739 36.414 35.5739 35.3125V23.75H35.9133C36.3246 23.75 36.7527 23.4125 36.7527 22.9375V22.375C36.7527 22.1489 36.637 21.9467 36.4911 21.8074C36.3444 21.6674 36.1379 21.5625 35.9133 21.5625H32.9931L31.8144 19.7096ZM29.8721 33.875H30.7562C31.0902 33.875 31.4482 33.6111 31.4482 33.2031V25.6094C31.4482 25.4184 31.351 25.2514 31.2327 25.1385C31.1136 25.0249 30.944 24.9375 30.7562 24.9375H29.8721C29.4737 24.9375 29.1801 25.2628 29.1801 25.6094V33.2031C29.1801 33.5982 29.4873 33.875 29.8721 33.875ZM26.1197 21.5625L26.4891 20.9611C26.4983 20.9547 26.5088 20.9479 26.5192 20.9418C26.5218 20.9402 26.5242 20.9388 26.5265 20.9375H29.9394C29.9416 20.9388 29.9441 20.9402 29.9467 20.9418C29.957 20.9479 29.9675 20.9547 29.9767 20.9611L30.3461 21.5625H26.1197ZM33.3058 35.0625H23.1969V23.75H33.3058V35.0625ZM25.7465 33.875H26.6305C26.9646 33.875 27.3226 33.6111 27.3226 33.2031V25.6094C27.3226 25.4184 27.2253 25.2514 27.107 25.1385C26.988 25.0249 26.8183 24.9375 26.6305 24.9375H25.7465C25.3481 24.9375 25.0544 25.2628 25.0544 25.6094V33.2031C25.0544 33.5982 25.3617 33.875 25.7465 33.875Z" fill="#00BF63" stroke="white" stroke-width="0.5"/>
<defs>
<filter id="filter0_d_132_82" x="0.1" y="0.1" width="59.8" height="59.8" filterUnits="userSpaceOnUse" color-interpolation-filters="sRGB">
<feFlood flood-opacity="0" result="BackgroundImageFix"/>
<feColorMatrix in="SourceAlpha" type="matrix" values="0 0 0 0 0 0 0 0 0 0 0 0 0 0 0 0 0 0 127 0" result="hardAlpha"/>
<feOffset dx="2" dy="2"/>
<feGaussianBlur stdDeviation="4.45"/>
<feComposite in2="hardAlpha" operator="out"/>
<feColorMatrix type="matrix" values="0 0 0 0 0 0 0 0 0 0 0 0 0 0 0 0 0 0 0.13 0"/>
<feBlend mode="normal" in2="BackgroundImageFix" result="effect1_dropShadow_132_82"/>
<feBlend mode="normal" in="SourceGraphic" in2="effect1_dropShadow_132_82" result="shape"/>
</filter>
</defs>
</svg>
