<svg width="79" height="79" viewBox="0 0 79 79" fill="none" xmlns="http://www.w3.org/2000/svg">
<rect x="0.720703" y="0.363037" width="78.2739" height="78.2739" rx="10.7368" fill="#F20707" fill-opacity="0.17"/>
<rect x="12.2988" y="11.9414" width="55.1172" height="55.1172" rx="12" fill="#F20707"/>
<path fill-rule="evenodd" clip-rule="evenodd" d="M39.6832 52.4478V54.3415C39.6832 55.8602 39.0369 57.1713 37.9138 57.9305C37.3735 58.2958 36.7704 58.4996 36.1451 58.5C35.5193 58.5004 34.9164 58.2962 34.3757 57.9305L27.1854 53.0689C26.0622 52.3095 25.416 50.9988 25.416 49.4799V24.6442C25.416 22.359 27.0034 20.5 28.9548 20.5H44.7904C46.7418 20.5 48.3294 22.3588 48.3294 24.6442V29.8795C48.3294 30.6305 47.8087 31.2403 47.1674 31.2403C46.5259 31.2403 46.0057 30.6306 46.0057 29.8795V24.6442C46.0057 23.8595 45.4605 23.221 44.7904 23.221H30.9143L37.9138 27.9544C39.0365 28.7137 39.6832 30.0244 39.6832 31.5427V49.7265H44.7904C45.4604 49.7265 46.0057 49.0883 46.0057 48.3036V43.7142C46.0057 42.9626 46.5256 42.3534 47.1674 42.3534C47.809 42.3534 48.3294 42.9628 48.3294 43.7142V48.3036C48.3294 50.589 46.7418 52.4478 44.7904 52.4478H39.6832ZM50.4495 37.8344L49.1699 39.3329C48.7162 39.8642 48.7164 40.7256 49.1699 41.257C49.3883 41.5129 49.6826 41.6551 49.9915 41.6551C50.3006 41.6551 50.5946 41.5133 50.8133 41.257L54.0758 37.4356C54.5294 36.9044 54.5294 36.0435 54.0758 35.5122L50.8133 31.6914C50.3595 31.16 49.624 31.1602 49.17 31.6913C48.7164 32.2222 48.7165 33.0839 49.17 33.6149L50.4495 35.1131H41.8774C41.2355 35.1131 40.7157 35.7222 40.7157 36.4739C40.7157 37.2256 41.2355 37.8344 41.8774 37.8344H50.4495V37.8344Z" fill="white"/>
</svg>
