<svg width="15" height="20" viewBox="0 0 15 20" fill="none" xmlns="http://www.w3.org/2000/svg">
<path d="M13.315 0.228271H1.18461C1.09525 0.228271 1.00954 0.263772 0.946349 0.326964C0.883157 0.390155 0.847656 0.475862 0.847656 0.565228V1.5761H1.85853C2.30536 1.5761 2.73389 1.7536 3.04985 2.06956C3.36581 2.38552 3.54331 2.81405 3.54331 3.26088C3.54331 3.70771 3.36581 4.13624 3.04985 4.4522C2.73389 4.76816 2.30536 4.94566 1.85853 4.94566H0.847656V5.95653H1.85853C2.30536 5.95653 2.73389 6.13404 3.04985 6.44999C3.36581 6.76595 3.54331 7.19448 3.54331 7.64131C3.54331 8.08815 3.36581 8.51668 3.04985 8.83264C2.73389 9.14859 2.30536 9.3261 1.85853 9.3261H0.847656V10.337H1.85853C2.30536 10.337 2.73389 10.5145 3.04985 10.8304C3.36581 11.1464 3.54331 11.5749 3.54331 12.0218C3.54331 12.4686 3.36581 12.8971 3.04985 13.2131C2.73389 13.529 2.30536 13.7065 1.85853 13.7065H0.847656V14.7174H1.85853C2.30536 14.7174 2.73389 14.8949 3.04985 15.2109C3.36581 15.5268 3.54331 15.9554 3.54331 16.4022C3.54331 16.849 3.36581 17.2775 3.04985 17.5935C2.73389 17.9095 2.30536 18.087 1.85853 18.087H0.847656V19.4348C0.847656 19.5242 0.883157 19.6099 0.946349 19.6731C1.00954 19.7362 1.09525 19.7717 1.18461 19.7717H13.315C13.7619 19.7717 14.1904 19.5942 14.5064 19.2783C14.8223 18.9623 14.9998 18.5338 14.9998 18.087V1.91305C14.9998 1.46622 14.8223 1.03769 14.5064 0.721733C14.1904 0.405775 13.7619 0.228271 13.315 0.228271ZM8.47298 4.36273L8.34831 3.72925C8.32856 3.6316 8.33071 3.53079 8.3546 3.43407C8.37848 3.33735 8.42352 3.24713 8.48646 3.1699C8.54986 3.09277 8.6296 3.03069 8.71993 2.98815C8.81025 2.94561 8.9089 2.92368 9.00874 2.92392H9.5344C9.63424 2.92368 9.73289 2.94561 9.82321 2.98815C9.91354 3.03069 9.99328 3.09277 10.0567 3.1699C10.1196 3.24713 10.1647 3.33735 10.1885 3.43407C10.2124 3.53079 10.2146 3.6316 10.1948 3.72925L10.0702 4.36273C10.8404 4.52911 11.5377 4.93666 12.0606 5.52623C12.5835 6.11579 12.9049 6.85667 12.9781 7.64131H5.5819C5.6541 6.85895 5.97304 6.11977 6.49269 5.53048C7.01234 4.94118 7.7058 4.53225 8.47298 4.36273ZM6.91287 16.7391C6.91287 16.8285 6.87737 16.9142 6.81418 16.9774C6.75099 17.0406 6.66528 17.0761 6.57592 17.0761H4.89113C4.80177 17.0761 4.71606 17.0406 4.65287 16.9774C4.58968 16.9142 4.55418 16.8285 4.55418 16.7391V15.0544C4.55418 14.965 4.58968 14.8793 4.65287 14.8161C4.71606 14.7529 4.80177 14.7174 4.89113 14.7174H6.57592C6.66528 14.7174 6.75099 14.7529 6.81418 14.8161C6.87737 14.8793 6.91287 14.965 6.91287 15.0544V16.7391ZM6.91287 13.0326C6.91287 13.122 6.87737 13.2077 6.81418 13.2709C6.75099 13.3341 6.66528 13.3696 6.57592 13.3696H4.89113C4.80177 13.3696 4.71606 13.3341 4.65287 13.2709C4.58968 13.2077 4.55418 13.122 4.55418 13.0326V11.3478C4.55418 11.2585 4.58968 11.1728 4.65287 11.1096C4.71606 11.0464 4.80177 11.0109 4.89113 11.0109H6.57592C6.66528 11.0109 6.75099 11.0464 6.81418 11.1096C6.87737 11.1728 6.91287 11.2585 6.91287 11.3478V13.0326ZM11.6303 16.7391H7.58679V16.0652H11.6303V16.7391ZM13.652 15.3913H7.58679V14.7174H13.652V15.3913ZM7.58679 13.0326V12.3587H11.6303V13.0326H7.58679ZM13.652 11.6848H7.58679V11.0109H13.652V11.6848ZM13.652 8.98914H4.89113V8.31523H13.652V8.98914Z" fill="#D1D1D1"/>
</svg>
