<svg width="24" height="24" viewBox="0 0 24 24" fill="none" xmlns="http://www.w3.org/2000/svg">
<path d="M4.51087 15.0326H5.8587C6.1268 15.0326 6.38391 14.9261 6.57349 14.7365C6.76306 14.547 6.86957 14.2898 6.86957 14.0217C6.86957 13.7536 6.76306 13.4965 6.57349 13.3069C6.38391 13.1174 6.1268 13.0109 5.8587 13.0109H4.51087C4.24277 13.0109 3.98565 13.1174 3.79608 13.3069C3.6065 13.4965 3.5 13.7536 3.5 14.0217C3.5 14.2898 3.6065 14.547 3.79608 14.7365C3.98565 14.9261 4.24277 15.0326 4.51087 15.0326ZM4.51087 10.6522H5.8587C6.1268 10.6522 6.38391 10.5457 6.57349 10.3561C6.76306 10.1665 6.86957 9.9094 6.86957 9.6413C6.86957 9.3732 6.76306 9.11609 6.57349 8.92651C6.38391 8.73694 6.1268 8.63043 5.8587 8.63043H4.51087C4.24277 8.63043 3.98565 8.73694 3.79608 8.92651C3.6065 9.11609 3.5 9.3732 3.5 9.6413C3.5 9.9094 3.6065 10.1665 3.79608 10.3561C3.98565 10.5457 4.24277 10.6522 4.51087 10.6522ZM4.51087 6.27174H5.8587C6.1268 6.27174 6.38391 6.16524 6.57349 5.97566C6.76306 5.78609 6.86957 5.52897 6.86957 5.26087C6.86957 4.99277 6.76306 4.73565 6.57349 4.54608C6.38391 4.3565 6.1268 4.25 5.8587 4.25H4.51087C4.24277 4.25 3.98565 4.3565 3.79608 4.54608C3.6065 4.73565 3.5 4.99277 3.5 5.26087C3.5 5.52897 3.6065 5.78609 3.79608 5.97566C3.98565 6.16524 4.24277 6.27174 4.51087 6.27174ZM6.86957 18.4022C6.86957 18.1341 6.76306 17.877 6.57349 17.6874C6.38391 17.4978 6.1268 17.3913 5.8587 17.3913H4.51087C4.24277 17.3913 3.98565 17.4978 3.79608 17.6874C3.6065 17.877 3.5 18.1341 3.5 18.4022C3.5 18.6703 3.6065 18.9274 3.79608 19.117C3.98565 19.3065 4.24277 19.413 4.51087 19.413H5.8587C6.1268 19.413 6.38391 19.3065 6.57349 19.117C6.76306 18.9274 6.86957 18.6703 6.86957 18.4022Z" fill="#00BF63"/>
<path d="M17.315 2.22827H5.18461C5.09525 2.22827 5.00954 2.26377 4.94635 2.32696C4.88316 2.39016 4.84766 2.47586 4.84766 2.56523V3.5761H5.85853C6.30536 3.5761 6.73389 3.7536 7.04985 4.06956C7.36581 4.38552 7.54331 4.81405 7.54331 5.26088C7.54331 5.70771 7.36581 6.13624 7.04985 6.4522C6.73389 6.76816 6.30536 6.94566 5.85853 6.94566H4.84766V7.95653H5.85853C6.30536 7.95653 6.73389 8.13404 7.04985 8.44999C7.36581 8.76595 7.54331 9.19448 7.54331 9.64131C7.54331 10.0881 7.36581 10.5167 7.04985 10.8326C6.73389 11.1486 6.30536 11.3261 5.85853 11.3261H4.84766V12.337H5.85853C6.30536 12.337 6.73389 12.5145 7.04985 12.8304C7.36581 13.1464 7.54331 13.5749 7.54331 14.0218C7.54331 14.4686 7.36581 14.8971 7.04985 15.2131C6.73389 15.529 6.30536 15.7065 5.85853 15.7065H4.84766V16.7174H5.85853C6.30536 16.7174 6.73389 16.8949 7.04985 17.2109C7.36581 17.5268 7.54331 17.9554 7.54331 18.4022C7.54331 18.849 7.36581 19.2775 7.04985 19.5935C6.73389 19.9095 6.30536 20.087 5.85853 20.087H4.84766V21.4348C4.84766 21.5242 4.88316 21.6099 4.94635 21.6731C5.00954 21.7362 5.09525 21.7717 5.18461 21.7717H17.315C17.7619 21.7717 18.1904 21.5942 18.5064 21.2783C18.8223 20.9623 18.9998 20.5338 18.9998 20.087V3.91305C18.9998 3.46622 18.8223 3.03769 18.5064 2.72173C18.1904 2.40577 17.7619 2.22827 17.315 2.22827ZM12.473 6.36273L12.3483 5.72925C12.3286 5.6316 12.3307 5.53079 12.3546 5.43407C12.3785 5.33735 12.4235 5.24713 12.4865 5.1699C12.5499 5.09277 12.6296 5.03069 12.7199 4.98815C12.8103 4.94561 12.9089 4.92368 13.0087 4.92392H13.5344C13.6342 4.92368 13.7329 4.94561 13.8232 4.98815C13.9135 5.03069 13.9933 5.09277 14.0567 5.1699C14.1196 5.24713 14.1647 5.33735 14.1885 5.43407C14.2124 5.53079 14.2146 5.6316 14.1948 5.72925L14.0702 6.36273C14.8404 6.52911 15.5377 6.93666 16.0606 7.52623C16.5835 8.11579 16.9049 8.85667 16.9781 9.64131H9.5819C9.6541 8.85895 9.97304 8.11977 10.4927 7.53048C11.0123 6.94118 11.7058 6.53225 12.473 6.36273ZM10.9129 18.7391C10.9129 18.8285 10.8774 18.9142 10.8142 18.9774C10.751 19.0406 10.6653 19.0761 10.5759 19.0761H8.89113C8.80177 19.0761 8.71606 19.0406 8.65287 18.9774C8.58968 18.9142 8.55418 18.8285 8.55418 18.7391V17.0544C8.55418 16.965 8.58968 16.8793 8.65287 16.8161C8.71606 16.7529 8.80177 16.7174 8.89113 16.7174H10.5759C10.6653 16.7174 10.751 16.7529 10.8142 16.8161C10.8774 16.8793 10.9129 16.965 10.9129 17.0544V18.7391ZM10.9129 15.0326C10.9129 15.122 10.8774 15.2077 10.8142 15.2709C10.751 15.3341 10.6653 15.3696 10.5759 15.3696H8.89113C8.80177 15.3696 8.71606 15.3341 8.65287 15.2709C8.58968 15.2077 8.55418 15.122 8.55418 15.0326V13.3478C8.55418 13.2585 8.58968 13.1728 8.65287 13.1096C8.71606 13.0464 8.80177 13.0109 8.89113 13.0109H10.5759C10.6653 13.0109 10.751 13.0464 10.8142 13.1096C10.8774 13.1728 10.9129 13.2585 10.9129 13.3478V15.0326ZM15.6303 18.7391H11.5868V18.0652H15.6303V18.7391ZM17.652 17.3913H11.5868V16.7174H17.652V17.3913ZM11.5868 15.0326V14.3587H15.6303V15.0326H11.5868ZM17.652 13.6848H11.5868V13.0109H17.652V13.6848ZM17.652 10.9891H8.89113V10.3152H17.652V10.9891Z" fill="#00BF63"/>
</svg>
