<svg width="24" height="24" viewBox="0 0 24 24" fill="none" xmlns="http://www.w3.org/2000/svg">
<path d="M4.51087 15.0326H5.8587C6.1268 15.0326 6.38391 14.9261 6.57349 14.7365C6.76306 14.547 6.86957 14.2898 6.86957 14.0217C6.86957 13.7536 6.76306 13.4965 6.57349 13.3069C6.38391 13.1174 6.1268 13.0109 5.8587 13.0109H4.51087C4.24277 13.0109 3.98565 13.1174 3.79608 13.3069C3.6065 13.4965 3.5 13.7536 3.5 14.0217C3.5 14.2898 3.6065 14.547 3.79608 14.7365C3.98565 14.9261 4.24277 15.0326 4.51087 15.0326ZM4.51087 10.6522H5.8587C6.1268 10.6522 6.38391 10.5457 6.57349 10.3561C6.76306 10.1665 6.86957 9.9094 6.86957 9.6413C6.86957 9.3732 6.76306 9.11609 6.57349 8.92651C6.38391 8.73694 6.1268 8.63043 5.8587 8.63043H4.51087C4.24277 8.63043 3.98565 8.73694 3.79608 8.92651C3.6065 9.11609 3.5 9.3732 3.5 9.6413C3.5 9.9094 3.6065 10.1665 3.79608 10.3561C3.98565 10.5457 4.24277 10.6522 4.51087 10.6522ZM4.51087 6.27174H5.8587C6.1268 6.27174 6.38391 6.16524 6.57349 5.97566C6.76306 5.78609 6.86957 5.52897 6.86957 5.26087C6.86957 4.99277 6.76306 4.73565 6.57349 4.54608C6.38391 4.3565 6.1268 4.25 5.8587 4.25H4.51087C4.24277 4.25 3.98565 4.3565 3.79608 4.54608C3.6065 4.73565 3.5 4.99277 3.5 5.26087C3.5 5.52897 3.6065 5.78609 3.79608 5.97566C3.98565 6.16524 4.24277 6.27174 4.51087 6.27174ZM6.86957 18.4022C6.86957 18.1341 6.76306 17.877 6.57349 17.6874C6.38391 17.4978 6.1268 17.3913 5.8587 17.3913H4.51087C4.24277 17.3913 3.98565 17.4978 3.79608 17.6874C3.6065 17.877 3.5 18.1341 3.5 18.4022C3.5 18.6703 3.6065 18.9274 3.79608 19.117C3.98565 19.3065 4.24277 19.413 4.51087 19.413H5.8587C6.1268 19.413 6.38391 19.3065 6.57349 19.117C6.76306 18.9274 6.86957 18.6703 6.86957 18.4022Z" fill="#A6A6A6"/>
<path d="M17.3153 2.22827H5.18486C5.09549 2.22827 5.00978 2.26377 4.94659 2.32696C4.8834 2.39016 4.8479 2.47586 4.8479 2.56523V3.5761H5.85877C6.3056 3.5761 6.73413 3.7536 7.05009 4.06956C7.36605 4.38552 7.54355 4.81405 7.54355 5.26088C7.54355 5.70771 7.36605 6.13624 7.05009 6.4522C6.73413 6.76816 6.3056 6.94566 5.85877 6.94566H4.8479V7.95653H5.85877C6.3056 7.95653 6.73413 8.13404 7.05009 8.44999C7.36605 8.76595 7.54355 9.19448 7.54355 9.64131C7.54355 10.0881 7.36605 10.5167 7.05009 10.8326C6.73413 11.1486 6.3056 11.3261 5.85877 11.3261H4.8479V12.337H5.85877C6.3056 12.337 6.73413 12.5145 7.05009 12.8304C7.36605 13.1464 7.54355 13.5749 7.54355 14.0218C7.54355 14.4686 7.36605 14.8971 7.05009 15.2131C6.73413 15.529 6.3056 15.7065 5.85877 15.7065H4.8479V16.7174H5.85877C6.3056 16.7174 6.73413 16.8949 7.05009 17.2109C7.36605 17.5268 7.54355 17.9554 7.54355 18.4022C7.54355 18.849 7.36605 19.2775 7.05009 19.5935C6.73413 19.9095 6.3056 20.087 5.85877 20.087H4.8479V21.4348C4.8479 21.5242 4.8834 21.6099 4.94659 21.6731C5.00978 21.7362 5.09549 21.7717 5.18486 21.7717H17.3153C17.7621 21.7717 18.1907 21.5942 18.5066 21.2783C18.8226 20.9623 19.0001 20.5338 19.0001 20.087V3.91305C19.0001 3.46622 18.8226 3.03769 18.5066 2.72173C18.1907 2.40577 17.7621 2.22827 17.3153 2.22827ZM12.4732 6.36273L12.3486 5.72925C12.3288 5.6316 12.331 5.53079 12.3548 5.43407C12.3787 5.33735 12.4238 5.24713 12.4867 5.1699C12.5501 5.09277 12.6298 5.03069 12.7202 4.98815C12.8105 4.94561 12.9091 4.92368 13.009 4.92392H13.5346C13.6345 4.92368 13.7331 4.94561 13.8235 4.98815C13.9138 5.03069 13.9935 5.09277 14.0569 5.1699C14.1199 5.24713 14.1649 5.33735 14.1888 5.43407C14.2127 5.53079 14.2148 5.6316 14.1951 5.72925L14.0704 6.36273C14.8407 6.52911 15.5379 6.93666 16.0608 7.52623C16.5837 8.11579 16.9051 8.85667 16.9783 9.64131H9.58214C9.65434 8.85895 9.97329 8.11977 10.4929 7.53048C11.0126 6.94118 11.706 6.53225 12.4732 6.36273ZM10.9131 18.7391C10.9131 18.8285 10.8776 18.9142 10.8144 18.9774C10.7512 19.0406 10.6655 19.0761 10.5762 19.0761H8.89138C8.80201 19.0761 8.71631 19.0406 8.65311 18.9774C8.58992 18.9142 8.55442 18.8285 8.55442 18.7391V17.0544C8.55442 16.965 8.58992 16.8793 8.65311 16.8161C8.71631 16.7529 8.80201 16.7174 8.89138 16.7174H10.5762C10.6655 16.7174 10.7512 16.7529 10.8144 16.8161C10.8776 16.8793 10.9131 16.965 10.9131 17.0544V18.7391ZM10.9131 15.0326C10.9131 15.122 10.8776 15.2077 10.8144 15.2709C10.7512 15.3341 10.6655 15.3696 10.5762 15.3696H8.89138C8.80201 15.3696 8.71631 15.3341 8.65311 15.2709C8.58992 15.2077 8.55442 15.122 8.55442 15.0326V13.3478C8.55442 13.2585 8.58992 13.1728 8.65311 13.1096C8.71631 13.0464 8.80201 13.0109 8.89138 13.0109H10.5762C10.6655 13.0109 10.7512 13.0464 10.8144 13.1096C10.8776 13.1728 10.9131 13.2585 10.9131 13.3478V15.0326ZM15.6305 18.7391H11.587V18.0652H15.6305V18.7391ZM17.6522 17.3913H11.587V16.7174H17.6522V17.3913ZM11.587 15.0326V14.3587H15.6305V15.0326H11.587ZM17.6522 13.6848H11.587V13.0109H17.6522V13.6848ZM17.6522 10.9891H8.89138V10.3152H17.6522V10.9891Z" fill="#A6A6A6"/>
</svg>
