<svg width="21" height="24" viewBox="0 0 21 24" fill="none" xmlns="http://www.w3.org/2000/svg">
<path d="M11.5114 20.4332C12.1039 20.4507 12.6855 20.5958 13.2165 20.8584H13.2485C13.6921 21.2218 13.7675 21.8705 13.419 22.3255C12.7844 23.2374 11.769 23.8123 10.6589 23.8883C9.51838 24.0249 8.36984 23.7079 7.46187 23.0059C6.99491 22.6844 6.69145 22.176 6.63064 21.6132C6.63064 21.0179 7.18479 20.7415 7.69632 20.6245C8.29545 20.4978 8.90618 20.4337 9.51862 20.4332H11.5114ZM10.1687 -0.00012207C13.8559 -0.00012207 17.6604 2.67896 18.0547 6.55937C18.1186 7.35671 18.0547 8.18595 18.1186 8.99393C18.3278 10.0359 18.8094 11.0041 19.5146 11.8006C19.9531 12.4551 20.207 13.2152 20.25 14.0013V14.2458C20.2565 15.3064 19.878 16.3336 19.1843 17.1375C18.3051 18.0813 17.1122 18.6745 15.8274 18.8066C12.0316 19.2956 8.18853 19.2956 4.39273 18.8066C3.09285 18.6845 1.88314 18.0906 0.993227 17.1375C0.321295 16.3259 -0.0310579 15.2979 0.00215048 14.2458V14.0013C0.0437378 13.2181 0.289881 12.4595 0.716152 11.8006C1.42448 11.0034 1.9129 10.0362 2.1335 8.99393C2.19744 8.18595 2.1335 7.36735 2.19744 6.55937C2.6024 2.67896 6.33225 -0.00012207 10.0621 -0.00012207H10.1687Z" fill="#666666"/>
<circle cx="15.5" cy="2.5" r="2.5" fill="#FE1616"/>
</svg>
