<svg width="18" height="18" viewBox="0 0 18 18" fill="none" xmlns="http://www.w3.org/2000/svg">
<g clip-path="url(#clip0_93_74)">
<path d="M12.7588 3.33545H11.3598V9.43456C11.3578 9.60314 11.2902 9.76432 11.1714 9.88389C11.0525 10.0035 10.8918 10.072 10.7232 10.075C10.5583 10.074 10.4 10.0099 10.281 9.8958L8.52369 8.19949L6.76258 9.8958C6.67227 9.9816 6.55889 10.0392 6.43635 10.0615C6.3138 10.0839 6.18739 10.07 6.07261 10.0216C5.95837 9.9721 5.86127 9.89001 5.79346 9.78558C5.72565 9.68116 5.69016 9.55906 5.69142 9.43456V3.33545H5.24923C4.74374 3.33545 4.25895 3.53626 3.90151 3.8937C3.54407 4.25113 3.34326 4.73593 3.34326 5.24142V12.7738C3.34326 13.2793 3.54407 13.7641 3.90151 14.1215C4.25895 14.479 4.74374 14.6798 5.24923 14.6798H12.7588C13.2643 14.6798 13.7491 14.479 14.1065 14.1215C14.4639 13.7641 14.6647 13.2793 14.6647 12.7738V5.24142C14.6647 4.73593 14.4639 4.25113 14.1065 3.8937C13.7491 3.53626 13.2643 3.33545 12.7588 3.33545ZM11.1806 13.7039H5.33691C5.23581 13.7039 5.13885 13.6638 5.06736 13.5923C4.99588 13.5208 4.95571 13.4238 4.95571 13.3227C4.95571 13.2216 4.99588 13.1247 5.06736 13.0532C5.13885 12.9817 5.23581 12.9415 5.33691 12.9415H11.1806C11.2817 12.9415 11.3787 12.9817 11.4502 13.0532C11.5217 13.1247 11.5618 13.2216 11.5618 13.3227C11.5618 13.4238 11.5217 13.5208 11.4502 13.5923C11.3787 13.6638 11.2817 13.7039 11.1806 13.7039ZM13.3001 11.9199H5.33691C5.23581 11.9199 5.13885 11.8798 5.06736 11.8083C4.99588 11.7368 4.95571 11.6399 4.95571 11.5388C4.95571 11.4377 4.99588 11.3407 5.06736 11.2692C5.13885 11.1977 5.23581 11.1576 5.33691 11.1576H13.3001C13.4012 11.1576 13.4981 11.1977 13.5696 11.2692C13.6411 11.3407 13.6813 11.4377 13.6813 11.5388C13.6813 11.6399 13.6411 11.7368 13.5696 11.8083C13.4981 11.8798 13.4012 11.9199 13.3001 11.9199Z" fill="#A6A6A6"/>
<path d="M8.08113 7.57433C8.20026 7.46062 8.35862 7.39717 8.52331 7.39717C8.688 7.39717 8.84636 7.46062 8.9655 7.57433L10.597 9.15248V3.33545H6.4458V9.15248L8.08113 7.57433Z" fill="#A6A6A6"/>
<path d="M15.4613 2.86208e-06H2.54266C1.86934 2.86208e-06 1.2236 0.267478 0.74749 0.743587C0.271381 1.2197 0.00390625 1.86544 0.00390625 2.53876V15.4612C0.00390625 16.1346 0.271381 16.7803 0.74749 17.2564C1.2236 17.7325 1.86934 18 2.54266 18H15.4652C16.1385 18 16.7842 17.7325 17.2603 17.2564C17.7364 16.7803 18.0039 16.1346 18.0039 15.4612V2.53876C18.0039 2.20504 17.9381 1.8746 17.8103 1.56634C17.6825 1.25807 17.4951 0.978033 17.259 0.742238C17.0228 0.506443 16.7425 0.319519 16.4341 0.192159C16.1256 0.0647989 15.7951 -0.000498212 15.4613 2.86208e-06ZM15.427 12.7738C15.427 13.4815 15.1459 14.1602 14.6455 14.6606C14.1451 15.1611 13.4664 15.4422 12.7587 15.4422H5.24152C4.53382 15.4422 3.85512 15.1611 3.3547 14.6606C2.85429 14.1602 2.57316 13.4815 2.57316 12.7738V5.24143C2.57316 4.53373 2.85429 3.85502 3.3547 3.35461C3.85512 2.8542 4.53382 2.57307 5.24152 2.57307H12.7587C13.4664 2.57307 14.1451 2.8542 14.6455 3.35461C15.1459 3.85502 15.427 4.53373 15.427 5.24143V12.7738Z" fill="#A6A6A6"/>
</g>
<defs>
<clipPath id="clip0_93_74">
<rect width="18" height="18" fill="white"/>
</clipPath>
</defs>
</svg>
