<svg width="15" height="19" viewBox="0 0 15 19" fill="none" xmlns="http://www.w3.org/2000/svg">
<path d="M0 15.7476C0 13.1622 3.455 12.5174 7.5 12.5174C11.5682 12.5174 15 13.187 15 15.7698C15 18.3527 11.545 19 7.5 19C3.4331 19 0 18.3318 0 15.7476ZM2.5365 5.03126C2.53573 4.03683 2.82608 3.06451 3.37081 2.23729C3.91555 1.41006 4.6902 0.765081 5.59678 0.383935C6.50336 0.00278925 7.50115 -0.0974038 8.46395 0.096029C9.42674 0.289462 10.3113 0.767831 11.0057 1.47063C11.7001 2.17343 12.1732 3.06909 12.3651 4.04431C12.5571 5.01954 12.4592 6.03053 12.0839 6.94941C11.7087 7.86829 11.0729 8.65377 10.2569 9.20651C9.44096 9.75925 8.48154 10.0544 7.5 10.0547C6.8479 10.0573 6.20174 9.92913 5.59873 9.67766C4.99571 9.42619 4.44776 9.05635 3.98641 8.58943C3.52507 8.12252 3.15945 7.56776 2.91061 6.95709C2.66177 6.34642 2.53463 5.69191 2.5365 5.03126Z" fill="#A6A6A6"/>
</svg>
