<svg width="18" height="18" viewBox="0 0 18 18" fill="none" xmlns="http://www.w3.org/2000/svg">
<g clip-path="url(#clip0_930_1656)">
<g clip-path="url(#clip1_930_1656)">
<path d="M8.125 2.625H4.375C3.68464 2.625 3.125 3.18464 3.125 3.875V7.625C3.125 8.31536 3.68464 8.875 4.375 8.875H8.125C8.81536 8.875 9.375 8.31536 9.375 7.625V3.875C9.375 3.18464 8.81536 2.625 8.125 2.625Z" fill="#A6A6A6"/>
<path d="M8.125 10.125H4.375C3.68464 10.125 3.125 10.6846 3.125 11.375V15.125C3.125 15.8154 3.68464 16.375 4.375 16.375H8.125C8.81536 16.375 9.375 15.8154 9.375 15.125V11.375C9.375 10.6846 8.81536 10.125 8.125 10.125Z" fill="#A6A6A6"/>
<path d="M15.625 2.625H11.875C11.1846 2.625 10.625 3.18464 10.625 3.875V7.625C10.625 8.31536 11.1846 8.875 11.875 8.875H15.625C16.3154 8.875 16.875 8.31536 16.875 7.625V3.875C16.875 3.18464 16.3154 2.625 15.625 2.625Z" fill="#A6A6A6"/>
<path d="M11.25 13.875C11.4158 13.875 11.5747 13.8091 11.6919 13.6919C11.8091 13.5747 11.875 13.4158 11.875 13.25V10.75C11.875 10.5842 11.8092 10.4253 11.6919 10.3081C11.5747 10.1908 11.4158 10.125 11.25 10.125C11.0842 10.125 10.9253 10.1908 10.8081 10.3081C10.6908 10.4253 10.625 10.5842 10.625 10.75V13.25C10.625 13.4158 10.6909 13.5747 10.8081 13.6919C10.9253 13.8091 11.0842 13.875 11.25 13.875Z" fill="#A6A6A6"/>
<path d="M16.25 11.375H14.375V10.75C14.375 10.5842 14.3092 10.4253 14.1919 10.3081C14.0747 10.1908 13.9158 10.125 13.75 10.125C13.5842 10.125 13.4253 10.1908 13.3081 10.3081C13.1908 10.4253 13.125 10.5842 13.125 10.75V15.125H11.25C11.0842 15.125 10.9253 15.1908 10.8081 15.3081C10.6908 15.4253 10.625 15.5842 10.625 15.75C10.625 15.9158 10.6908 16.0747 10.8081 16.1919C10.9253 16.3092 11.0842 16.375 11.25 16.375H13.75C13.9158 16.375 14.0747 16.3091 14.1919 16.1919C14.3091 16.0747 14.375 15.9158 14.375 15.75V12.625H16.25C16.4158 12.625 16.5747 12.5592 16.6919 12.4419C16.8092 12.3247 16.875 12.1658 16.875 12C16.875 11.8342 16.8092 11.6753 16.6919 11.5581C16.5747 11.4408 16.4158 11.375 16.25 11.375ZM16.25 13.875C16.0842 13.875 15.9253 13.9409 15.8081 14.0581C15.6909 14.1753 15.625 14.3342 15.625 14.5V15.75C15.625 15.9158 15.6908 16.0747 15.8081 16.1919C15.9253 16.3092 16.0842 16.375 16.25 16.375C16.4158 16.375 16.5747 16.3092 16.6919 16.1919C16.8092 16.0747 16.875 15.9158 16.875 15.75V14.5C16.875 14.3342 16.8091 14.1753 16.6919 14.0581C16.5747 13.9409 16.4158 13.875 16.25 13.875Z" fill="#A6A6A6"/>
</g>
</g>
<defs>
<clipPath id="clip0_930_1656">
<rect width="18" height="18" fill="white"/>
</clipPath>
<clipPath id="clip1_930_1656">
<rect width="20" height="20" fill="white" transform="translate(0 -0.5)"/>
</clipPath>
</defs>
</svg>
