<svg width="24" height="24" viewBox="0 0 24 24" fill="none" xmlns="http://www.w3.org/2000/svg">
<path d="M17.6 5.5H17.55C17.1358 5.5 16.8 5.16421 16.8 4.75C16.8 4.3 16.48 4 16 4C15.52 4 15.2 4.3 15.2 4.75C15.2 5.16421 14.8642 5.5 14.45 5.5H9.55C9.13579 5.5 8.8 5.16421 8.8 4.75C8.8 4.3 8.48 4 8 4C7.52 4 7.2 4.3 7.2 4.75C7.2 5.16421 6.86421 5.5 6.45 5.5H6.4C5.04 5.5 4 6.475 4 7.75C4 8.16421 4.33579 8.5 4.75 8.5H19.25C19.6642 8.5 20 8.16421 20 7.75C20 6.475 18.96 5.5 17.6 5.5ZM4 16.75C4 18.025 5.04 19 6.4 19H17.6C18.96 19 20 18.025 20 16.75V11C20 10.4477 19.5523 10 19 10H5C4.44772 10 4 10.4477 4 11V16.75ZM16 11.5C16.48 11.5 16.8 11.8 16.8 12.25C16.8 12.7 16.48 13 16 13C15.52 13 15.2 12.7 15.2 12.25C15.2 11.8 15.52 11.5 16 11.5ZM16 14.5C16.48 14.5 16.8 14.8 16.8 15.25C16.8 15.7 16.48 16 16 16C15.52 16 15.2 15.7 15.2 15.25C15.2 14.8 15.52 14.5 16 14.5ZM12 11.5C12.48 11.5 12.8 11.8 12.8 12.25C12.8 12.7 12.48 13 12 13C11.52 13 11.2 12.7 11.2 12.25C11.2 11.8 11.52 11.5 12 11.5ZM12 14.5C12.48 14.5 12.8 14.8 12.8 15.25C12.8 15.7 12.48 16 12 16C11.52 16 11.2 15.7 11.2 15.25C11.2 14.8 11.52 14.5 12 14.5ZM8 11.5C8.48 11.5 8.8 11.8 8.8 12.25C8.8 12.7 8.48 13 8 13C7.52 13 7.2 12.7 7.2 12.25C7.2 11.8 7.52 11.5 8 11.5ZM8 14.5C8.48 14.5 8.8 14.8 8.8 15.25C8.8 15.7 8.48 16 8 16C7.52 16 7.2 15.7 7.2 15.25C7.2 14.8 7.52 14.5 8 14.5Z" fill="#A6A6A6"/>
</svg>
