<svg width="19" height="19" viewBox="0 0 19 19" fill="none" xmlns="http://www.w3.org/2000/svg">
<path d="M15.8357 7.978C15.8357 12.1109 12.5071 15.4559 8.40758 15.4559C4.30811 15.4559 0.979492 12.1109 0.979492 7.978C0.979492 3.84513 4.30811 0.500122 8.40758 0.500122C12.5071 0.500122 15.8357 3.84513 15.8357 7.978Z" stroke="#00BF63"/>
<path opacity="0.6" d="M18.3722 17.4718C18.2881 17.6876 18.1108 17.8465 17.8982 17.9094L17.8899 17.9024L17.7172 17.8968C17.5419 17.8911 17.3745 17.8211 17.2463 17.6996L15.3835 15.5221L15.3636 15.4989L15.341 15.4782C15.1436 15.2977 15.1239 14.9914 15.295 14.7867C15.3696 14.716 15.4677 14.677 15.5693 14.677C15.6752 14.677 15.7775 14.7195 15.8532 14.7961L15.8737 14.8168L15.8964 14.835L18.2307 16.7028C18.4187 16.9097 18.475 17.2081 18.3722 17.4718Z" stroke="#00BF63"/>
</svg>
