<svg width="19" height="20" viewBox="0 0 19 20" fill="none" xmlns="http://www.w3.org/2000/svg">
<path d="M9.78854 0.000344255C10.3156 -0.00923908 10.8149 0.181469 11.1877 0.546594C11.5624 0.900219 11.7627 1.38993 11.7627 1.90743C11.7627 2.96159 12.6348 3.81547 13.7187 3.81547C14.0531 3.81547 14.3885 3.71868 14.6866 3.55576C15.6152 3.05647 16.7748 3.37368 17.3019 4.26493L17.9545 5.38618C18.1174 5.67368 18.2123 5.99951 18.2123 6.33493C18.2123 7.01534 17.8395 7.6488 17.2357 7.98326C16.9377 8.14618 16.6885 8.39534 16.517 8.6838C16.0081 9.58368 16.3253 10.7231 17.2357 11.2425C18.1548 11.7687 18.471 12.9196 17.9545 13.8291L17.3019 14.913C16.9569 15.5062 16.3148 15.8713 15.6248 15.8713C15.2798 15.8713 14.9348 15.7841 14.6482 15.6116C14.3406 15.4487 14.0062 15.3528 13.6698 15.3528C13.1523 15.3528 12.654 15.555 12.2907 15.9183C11.916 16.2738 11.7148 16.7616 11.7148 17.2695C11.7148 18.3141 10.8437 19.167 9.75979 19.167H8.44783C7.92937 19.167 7.44062 18.9562 7.08604 18.6016C6.72187 18.2374 6.53117 17.7583 6.53117 17.2599C6.53117 16.2058 5.66771 15.3528 4.58575 15.3528C4.23021 15.3528 3.88521 15.4487 3.58812 15.6317C3.13771 15.8799 2.60104 15.947 2.10271 15.8224C1.60437 15.6883 1.17312 15.3624 0.914373 14.9312L0.301998 13.8483C0.0135401 13.3988 -0.0727099 12.8612 0.0624151 12.3533C0.195623 11.8453 0.541582 11.4141 1.01021 11.1553C1.30825 10.9924 1.55646 10.7528 1.72896 10.4558C2.22825 9.55493 1.91104 8.42409 1.01021 7.89701C0.0997901 7.37951 -0.21646 6.23909 0.301998 5.33826L0.914373 4.26493C1.17312 3.81547 1.60437 3.48868 2.11229 3.35451C2.62117 3.22034 3.15687 3.29605 3.60729 3.55576C3.91396 3.71868 4.24937 3.80493 4.58575 3.80493C5.10325 3.80493 5.60062 3.60368 5.96479 3.24909C6.32896 2.89451 6.53117 2.40576 6.53117 1.90743C6.53117 0.853261 7.40229 0.000344255 8.48521 0.000344255H9.78854ZM10.1728 7.16963C9.16658 6.75659 8.00604 6.97701 7.22979 7.73409C6.46312 8.48159 6.22354 9.62201 6.64521 10.6005C7.05825 11.5866 8.03479 12.2287 9.12729 12.2287H9.13783C9.85658 12.2383 10.5274 11.9613 11.0344 11.462C11.5423 10.9733 11.8298 10.3024 11.8298 9.60284C11.8394 8.53909 11.1781 7.57118 10.1728 7.16963Z" fill="#A6A6A6"/>
</svg>
