<svg width="18" height="16" viewBox="0 0 18 16" fill="none" xmlns="http://www.w3.org/2000/svg">
<path d="M5.25 1.5C5.25 0.947715 5.69772 0.5 6.25 0.5H7.25C7.80228 0.5 8.25 0.947715 8.25 1.5V14.5C8.25 15.0523 7.80228 15.5 7.25 15.5H6.25C5.69772 15.5 5.25 15.0523 5.25 14.5V1.5ZM0.75 12C0.75 11.4477 1.19772 11 1.75 11H2.75C3.30228 11 3.75 11.4477 3.75 12V14.5C3.75 15.0523 3.30228 15.5 2.75 15.5H1.75C1.19772 15.5 0.75 15.0523 0.75 14.5V12ZM9.75 9C9.75 8.44772 10.1977 8 10.75 8H11.75C12.3023 8 12.75 8.44772 12.75 9V14.5C12.75 15.0523 12.3023 15.5 11.75 15.5H10.75C10.1977 15.5 9.75 15.0523 9.75 14.5V9ZM14.25 6C14.25 5.44772 14.6977 5 15.25 5H16.25C16.8023 5 17.25 5.44772 17.25 6V14.5C17.25 15.0523 16.8023 15.5 16.25 15.5H15.25C14.6977 15.5 14.25 15.0523 14.25 14.5V6Z" fill="#D1D1D1"/>
</svg>
