<svg width="24" height="25" viewBox="0 0 24 25" fill="none" xmlns="http://www.w3.org/2000/svg">
<path fill-rule="evenodd" clip-rule="evenodd" d="M11 2.5C9.93913 2.5 8.92172 2.92143 8.17157 3.67157C7.42143 4.42172 7 5.43913 7 6.5H3C2.73478 6.5 2.48043 6.60536 2.29289 6.79289C2.10536 6.98043 2 7.23478 2 7.5C2 7.76522 2.10536 8.01957 2.29289 8.20711C2.48043 8.39464 2.73478 8.5 3 8.5H4V18.5C4 19.5609 4.42143 20.5783 5.17157 21.3284C5.92172 22.0786 6.93913 22.5 8 22.5H16C17.0609 22.5 18.0783 22.0786 18.8284 21.3284C19.5786 20.5783 20 19.5609 20 18.5V8.5H21C21.2652 8.5 21.5196 8.39464 21.7071 8.20711C21.8946 8.01957 22 7.76522 22 7.5C22 7.23478 21.8946 6.98043 21.7071 6.79289C21.5196 6.60536 21.2652 6.5 21 6.5H17C17 5.43913 16.5786 4.42172 15.8284 3.67157C15.0783 2.92143 14.0609 2.5 13 2.5H11ZM15 6.5C15 5.96957 14.7893 5.46086 14.4142 5.08579C14.0391 4.71071 13.5304 4.5 13 4.5H11C10.4696 4.5 9.96086 4.71071 9.58579 5.08579C9.21071 5.46086 9 5.96957 9 6.5H15ZM10 10.5C10.2652 10.5 10.5196 10.6054 10.7071 10.7929C10.8946 10.9804 11 11.2348 11 11.5V17.5C11 17.7652 10.8946 18.0196 10.7071 18.2071C10.5196 18.3946 10.2652 18.5 10 18.5C9.73478 18.5 9.48043 18.3946 9.29289 18.2071C9.10536 18.0196 9 17.7652 9 17.5V11.5C9 11.2348 9.10536 10.9804 9.29289 10.7929C9.48043 10.6054 9.73478 10.5 10 10.5ZM15 11.5C15 11.2348 14.8946 10.9804 14.7071 10.7929C14.5196 10.6054 14.2652 10.5 14 10.5C13.7348 10.5 13.4804 10.6054 13.2929 10.7929C13.1054 10.9804 13 11.2348 13 11.5V17.5C13 17.7652 13.1054 18.0196 13.2929 18.2071C13.4804 18.3946 13.7348 18.5 14 18.5C14.2652 18.5 14.5196 18.3946 14.7071 18.2071C14.8946 18.0196 15 17.7652 15 17.5V11.5Z" fill="#FD342A"/>
</svg>
