<svg width="18" height="18" viewBox="0 0 18 18" fill="none" xmlns="http://www.w3.org/2000/svg">
<path d="M11.5759 11.2609C11.2655 11.2609 11.0172 11.4845 11.0172 11.764C11.0172 12.0435 11.2655 12.2671 11.5759 12.2671C11.8862 12.2671 12.1345 12.0435 12.1345 11.764C12.1345 11.4845 11.8862 11.2609 11.5759 11.2609ZM11.5759 11.2609C11.2655 11.2609 11.0172 11.4845 11.0172 11.764C11.0172 12.0435 11.2655 12.2671 11.5759 12.2671C11.8862 12.2671 12.1345 12.0435 12.1345 11.764C12.1345 11.4845 11.8862 11.2609 11.5759 11.2609ZM17.6586 6.76087C17.8448 6.76087 18 6.64907 18 6.48137V5.2795C18 5.1118 17.8448 5 17.6897 5H6.36207V6.11801C6.36207 6.25776 6.2069 6.39752 6.05172 6.39752C5.89655 6.39752 5.74138 6.25776 5.74138 6.11801V5H0.310345C0.155172 5 0 5.1118 0 5.2795V6.48137C0 6.64907 0.155172 6.76087 0.341379 6.76087C2.01724 6.76087 3.38276 7.99068 3.38276 9.5C3.38276 11.0093 2.01724 12.2391 0.341379 12.2391C0.155172 12.2391 0 12.3509 0 12.5186V13.7205C0 13.8602 0.155172 14 0.310345 14H5.74138V12.882C5.74138 12.7422 5.89655 12.6025 6.05172 12.6025C6.2069 12.6025 6.36207 12.7422 6.36207 12.882V14H17.6897C17.8448 14 18 13.8602 18 13.7205V12.5186C18 12.3509 17.8448 12.2391 17.6586 12.2391C15.9828 12.2391 14.6172 11.0093 14.6172 9.5C14.6483 7.99068 15.9828 6.76087 17.6586 6.76087ZM6.36207 11.5404C6.36207 11.6801 6.2069 11.8199 6.05172 11.8199C5.89655 11.8199 5.74138 11.6801 5.74138 11.5404V10.1708C5.74138 10.0311 5.89655 9.89131 6.05172 9.89131C6.2069 9.89131 6.36207 10.0311 6.36207 10.1708V11.5404ZM6.36207 8.82919C6.36207 8.9969 6.2069 9.1087 6.05172 9.1087C5.89655 9.1087 5.74138 8.9969 5.74138 8.82919V7.48758C5.74138 7.31988 5.89655 7.20807 6.05172 7.20807C6.2069 7.20807 6.36207 7.31988 6.36207 7.48758V8.82919ZM9.55862 6.20186C10.2103 6.20186 10.7379 6.67702 10.7379 7.26398C10.7379 7.85093 10.2103 8.32609 9.55862 8.32609C8.9069 8.29814 8.37931 7.82298 8.37931 7.26398C8.37931 6.67702 8.9069 6.20186 9.55862 6.20186ZM11.5759 12.7981C10.9241 12.7981 10.3966 12.323 10.3966 11.736C10.3966 11.1491 10.9241 10.6739 11.5759 10.6739C12.2276 10.6739 12.7552 11.1491 12.7552 11.736C12.7552 12.323 12.2276 12.7981 11.5759 12.7981ZM13.2517 6.95652L8.37931 12.4068C8.31724 12.4907 8.22414 12.5186 8.13103 12.5186C8.06896 12.5186 8.0069 12.4907 7.94483 12.4627C7.82069 12.3789 7.78965 12.1832 7.88276 12.0714L12.7552 6.62112C12.8793 6.50932 13.0655 6.48137 13.1897 6.56522C13.3138 6.64907 13.3448 6.84472 13.2517 6.95652ZM11.5759 11.2609C11.2655 11.2609 11.0172 11.4845 11.0172 11.764C11.0172 12.0435 11.2655 12.2671 11.5759 12.2671C11.8862 12.2671 12.1345 12.0435 12.1345 11.764C12.1345 11.4845 11.8862 11.2609 11.5759 11.2609ZM9.55862 7.73913C9.86897 7.73913 10.1172 7.51553 10.1172 7.23603C10.1172 6.95652 9.86897 6.73292 9.55862 6.73292C9.24827 6.73292 9 6.95652 9 7.23603C9 7.51553 9.24827 7.73913 9.55862 7.73913Z" fill="#A6A6A6"/>
</svg>
